<?xml version="1.0" standalone="no"?>
<!DOCTYPE svg PUBLIC "-//W3C//DTD SVG 20010904//EN"
 "http://www.w3.org/TR/2001/REC-SVG-20010904/DTD/svg10.dtd">
<svg version="1.0" xmlns="http://www.w3.org/2000/svg"
 width="830.000000pt" height="830.000000pt" viewBox="0 0 830.000000 830.000000"
 preserveAspectRatio="xMidYMid meet">
<metadata>
Created by potrace 1.16, written by Peter Selinger 2001-2019
</metadata>
<g transform="translate(0.000000,830.000000) scale(0.100000,-0.100000)"
fill="#000000" stroke="none">
<path d="M34 4458 c3 -13 8 -72 11 -133 16 -287 77 -614 162 -870 73 -219 222
-541 337 -725 67 -106 218 -324 236 -340 3 -3 34 -41 70 -85 96 -120 338 -357
490 -479 134 -107 353 -259 440 -305 25 -13 52 -29 60 -35 24 -17 57 -35 180
-96 586 -292 1213 -452 1995 -511 165 -12 718 -15 915 -5 141 8 357 24 410 31
19 2 60 7 90 10 266 29 584 92 865 172 183 52 458 169 640 272 39 22 84 48
100 57 17 9 53 34 82 56 29 21 55 38 58 38 4 0 12 6 20 13 7 6 28 23 46 37
135 102 352 314 444 434 17 22 50 65 75 97 46 59 122 167 128 181 2 4 -321 8
-719 8 l-722 0 -51 -34 c-173 -115 -459 -223 -738 -280 -146 -30 -392 -63
-538 -71 -58 -3 -123 -8 -145 -11 -52 -6 -717 -6 -736 0 -8 2 -63 7 -124 10
-60 4 -121 8 -135 10 -14 2 -52 7 -85 10 -76 8 -97 11 -280 42 -471 78 -899
228 -1260 442 -95 57 -171 107 -225 149 -195 151 -292 240 -421 391 -239 278
-411 597 -498 922 -40 151 -91 473 -91 576 l0 44 -545 0 -545 0 4 -22z"/>
<path d="M1896 4443 c42 -244 159 -564 272 -743 49 -77 114 -174 121 -180 4
-3 19 -21 35 -40 139 -171 309 -307 551 -442 364 -204 759 -326 1190 -368 129
-13 540 -16 713 -5 213 13 461 37 630 60 161 23 462 78 493 90 8 3 35 72 62
153 26 81 115 352 197 602 83 250 181 550 219 665 38 116 72 218 76 228 7 16
-24 17 -559 17 l-566 0 -10 -22 c-5 -13 -34 -106 -65 -208 -31 -102 -73 -239
-94 -305 -22 -66 -47 -146 -56 -177 l-18 -58 -56 -1 c-31 -1 -67 -3 -81 -5
-42 -6 -542 -7 -595 -1 -27 4 -79 9 -115 12 -360 35 -681 135 -887 276 -52 36
-160 140 -200 194 -42 57 -106 170 -133 238 l-22 57 -555 0 -554 0 7 -37z"/>
</g>
</svg>
