<?xml version="1.0" standalone="no"?>
<!DOCTYPE svg PUBLIC "-//W3C//DTD SVG 20010904//EN"
 "http://www.w3.org/TR/2001/REC-SVG-20010904/DTD/svg10.dtd">
<svg version="1.0" xmlns="http://www.w3.org/2000/svg"
 width="830.000000pt" height="830.000000pt" viewBox="0 0 830.000000 830.000000"
 preserveAspectRatio="xMidYMid meet">

<g transform="translate(0.000000,830.000000) scale(0.100000,-0.100000)"
fill="#000000" stroke="none">
<path d="M40 4463 c0 -57 33 -372 50 -484 76 -496 259 -952 561 -1399 224
-332 528 -640 876 -888 825 -590 2000 -876 3338 -813 1120 53 1855 273 2425
727 173 138 385 370 540 592 l51 72 -720 0 -720 0 -72 -46 c-229 -148 -597
-262 -1014 -313 -493 -61 -1157 -52 -1634 20 -801 121 -1430 410 -1887 864
-200 199 -334 383 -459 630 -151 297 -223 570 -260 983 l-7 72 -534 0 c-502 0
-534 -1 -534 -17z"/>
<path d="M1900 4463 c0 -38 51 -238 89 -353 123 -366 342 -685 612 -890 167
-126 474 -290 692 -369 386 -140 674 -187 1152 -185 498 1 948 46 1361 134
l100 22 269 816 c148 450 271 823 273 830 3 9 -112 12 -555 12 l-560 0 -119
-384 -119 -385 -55 -8 c-89 -13 -703 -9 -810 5 -437 58 -700 145 -908 302
-148 111 -234 230 -320 443 l-12 27 -545 0 c-512 0 -545 -1 -545 -17z"/>
</g>
</svg>
